<svg width="547" height="446" viewBox="0 0 547 446" fill="none" xmlns="http://www.w3.org/2000/svg">
<path d="M0 263.099C0.45206 245.786 4.03345 196.041 40.3972 152.676C48.8299 142.619 74.113 112.468 114.949 102.65C159.058 92.0445 172.649 116.863 218.402 118.694C305.675 122.188 332.905 34.9635 409.634 45.9583C453.867 52.2958 481.263 86.5052 489.053 96.2316C531.295 148.979 537.643 235.005 501.593 274.865C467.232 312.856 420.109 280.427 365.745 325.138C328.342 355.9 340.094 379.93 308.27 408.571C248.584 462.29 114.504 461.232 44.9339 380.761C8.77934 338.941 1.58002 289.017 0 263.099Z" fill="#DAF3F4"/>
<path d="M413.117 152.546C412.885 152.769 412.65 152.985 412.406 153.193C409.684 155.52 406.184 156.921 402.361 156.921H117.159C113.354 156.921 109.863 155.531 107.149 153.223C106.895 153.006 106.645 152.78 106.403 152.546L252.381 22.6797C256.613 18.915 262.907 18.915 267.139 22.6797L413.117 152.546Z" fill="#6DC9CB"/>
<path d="M417.995 164.059V341.452C417.995 344.756 417.019 347.826 415.347 350.378C414.693 351.376 413.931 352.297 413.078 353.121C412.847 353.344 412.611 353.56 412.367 353.768C409.646 356.095 406.145 357.495 402.322 357.495H117.12C113.315 357.495 109.825 356.106 107.111 353.798C106.856 353.581 106.606 353.355 106.365 353.121C105.513 352.299 104.751 351.378 104.096 350.379C102.694 348.241 101.783 345.737 101.524 343.037C101.472 342.516 101.448 341.987 101.448 341.452V164.059C101.448 163.524 101.472 162.996 101.524 162.475C101.903 158.514 103.689 154.975 106.365 152.39C106.606 152.157 106.855 151.93 107.111 151.713C109.826 149.404 113.315 148.016 117.12 148.016H402.322C406.145 148.016 409.646 149.416 412.367 151.743C412.611 151.951 412.847 152.167 413.078 152.39C416.105 155.316 417.995 159.462 417.995 164.059Z" fill="#A0DCDD"/>
<path d="M370.786 125.417H148.658C145.851 125.417 143.576 127.746 143.576 130.619V274.712C143.576 277.585 145.851 279.914 148.658 279.914H370.786C373.593 279.914 375.869 277.585 375.869 274.712V130.619C375.869 127.746 373.593 125.417 370.786 125.417Z" fill="#E6FDFF"/>
<path d="M291.22 141.333H162.045C160.959 141.333 160.079 142.234 160.079 143.346V147.983C160.079 149.095 160.959 149.996 162.045 149.996H291.22C292.306 149.996 293.187 149.095 293.187 147.983V143.346C293.187 142.234 292.306 141.333 291.22 141.333Z" fill="#DAF3F4"/>
<path d="M346.269 160.705H161.459C160.697 160.705 160.079 161.337 160.079 162.117V165.373C160.079 166.153 160.697 166.785 161.459 166.785H346.269C347.031 166.785 347.649 166.153 347.649 165.373V162.117C347.649 161.337 347.031 160.705 346.269 160.705Z" fill="#DAF3F4"/>
<path d="M346.269 173.906H161.459C160.697 173.906 160.079 174.538 160.079 175.318V178.574C160.079 179.354 160.697 179.986 161.459 179.986H346.269C347.031 179.986 347.649 179.354 347.649 178.574V175.318C347.649 174.538 347.031 173.906 346.269 173.906Z" fill="#DAF3F4"/>
<path d="M319.201 188.42H161.459C160.697 188.42 160.079 189.053 160.079 189.833V193.088C160.079 193.868 160.697 194.5 161.459 194.5H319.201C319.963 194.5 320.581 193.868 320.581 193.088V189.833C320.581 189.053 319.963 188.42 319.201 188.42Z" fill="#DAF3F4"/>
<path d="M259.76 252.755L107.111 353.798C106.856 353.581 106.607 353.355 106.367 353.121C105.516 352.299 104.753 351.38 104.098 350.381C102.695 348.242 101.784 345.739 101.525 343.039V162.476C101.905 158.517 103.691 154.977 106.366 152.394C106.606 152.16 106.856 151.934 107.11 151.717L259.759 252.756L259.76 252.755Z" fill="#6DC9CB"/>
<path d="M417.993 164.057V341.452C417.993 344.754 417.018 347.825 415.345 350.377C414.691 351.376 413.929 352.297 413.076 353.119C412.845 353.342 412.61 353.558 412.365 353.766L259.758 252.752L412.367 151.741C412.611 151.95 412.848 152.165 413.078 152.388C416.106 155.313 417.995 159.46 417.995 164.056L417.993 164.057Z" fill="#6DC9CB"/>
<path d="M236.493 237.354L259.758 252.753L107.11 353.797C106.855 353.58 106.605 353.355 106.365 353.121C105.513 352.299 104.751 351.378 104.096 350.379L233.426 235.327L236.493 237.356V237.354Z" fill="#4FC1C1"/>
<path d="M415.345 350.371C414.691 351.37 413.929 352.291 413.076 353.113C412.845 353.336 412.609 353.552 412.365 353.76L259.758 252.746L286.049 235.346L415.347 350.37L415.345 350.371Z" fill="#4FC1C1"/>
<path d="M413.067 353.109C409.742 357.157 403.871 357.475 398.704 357.476L123.403 357.523C117.392 357.523 110.767 357.293 106.336 353.133C120.117 340.875 133.899 328.615 147.681 316.356C161.463 304.097 175.244 291.837 189.027 279.578C202.809 267.319 216.589 255.059 230.372 242.8C237.598 236.373 244.822 229.944 252.046 223.517C256.447 219.601 262.992 219.602 267.393 223.517L413.07 353.108L413.067 353.112V353.109Z" fill="#A0DCDD"/>
<path d="M421.759 73.7905L510.518 9.50788L425.253 38.422L421.759 73.7905Z" fill="#74BAB8"/>
<path d="M407.054 17.7267L425.253 38.4314L517.212 4.98575L435.528 53.6687L460.561 85.0163L517.212 4.98575L407.054 17.7267Z" fill="#A0DCDD"/>
<path d="M425.253 38.4314L421.759 73.7999L435.528 53.6687L517.212 4.98575L425.253 38.4314Z" fill="#7DCCCC"/>
<path d="M80.3254 338.759C103.756 338.759 122.75 319.317 122.75 295.333C122.75 271.349 103.756 251.906 80.3254 251.906C56.8948 251.906 37.9005 271.349 37.9005 295.333C37.9005 319.317 56.8948 338.759 80.3254 338.759Z" fill="#A0DCDD"/>
<path d="M52.2952 297.62C52.2952 288.642 55.1363 281.144 60.817 275.125C66.4978 269.056 73.7483 266.02 82.57 266.02C85.161 266.02 87.6276 266.351 89.9698 267.015C92.3106 267.627 94.4787 268.596 96.4727 269.923C98.4653 271.199 100.209 272.653 101.704 274.284C103.2 275.918 104.446 277.727 105.442 279.717C107.385 283.643 108.357 287.827 108.357 292.264C108.357 295.275 107.957 298.005 107.161 300.451C106.414 302.951 105.242 305.094 103.647 306.879C102.053 308.664 100.383 310.042 98.6394 311.01C96.8458 311.928 95.001 312.388 93.1079 312.388C90.4672 312.388 88.4732 311.445 87.1287 309.558C86.7293 308.998 86.406 308.385 86.1573 307.722C83.5151 310.325 80.1517 311.624 76.0671 311.624C74.373 311.624 72.8017 311.294 71.3563 310.63C69.9109 309.967 68.641 308.998 67.5452 307.722C65.3522 305.172 64.2565 301.805 64.2565 297.623C64.2565 292.166 65.8248 287.829 68.9658 284.615C70.5107 283.034 72.2034 281.836 74.0482 281.02C75.8915 280.154 77.9339 279.771 80.1781 279.871C82.968 279.974 85.2356 281.327 86.9795 283.926C87.3789 284.488 87.7519 285.075 88.1016 285.686L88.3254 283.008C88.3751 282.345 88.7745 281.708 89.5221 281.096C90.119 280.636 90.792 280.407 91.5396 280.407C92.3866 280.407 93.0596 280.738 93.5585 281.401C94.1056 282.167 94.3309 282.857 94.2314 283.468L94.1568 284.615L91.4664 300.302C91.4152 300.505 91.3655 300.811 91.3172 301.22V301.907C91.3172 304.917 91.9404 306.422 93.1854 306.422C95.2775 306.422 97.3461 305.223 99.3899 302.825C101.482 300.429 102.529 296.908 102.529 292.266C102.529 286.707 100.661 281.938 96.9233 277.959C93.2352 273.981 88.4512 271.991 82.5715 271.991C75.4951 271.991 69.6885 274.416 65.1547 279.26C60.5698 284.157 58.2787 290.277 58.2787 297.623C58.2787 304.204 59.9977 309.356 63.4357 313.078C65.1299 314.967 67.1722 316.369 69.5642 317.287C72.0059 318.205 74.847 318.664 78.086 318.664C83.2181 318.664 88.2274 317.594 93.1108 315.451C94.0574 315.042 94.8547 314.838 95.5028 314.838C96.0002 314.838 96.4742 314.965 96.9233 315.22C97.4207 315.476 97.7689 315.858 97.9694 316.369C98.0176 316.421 98.0425 316.472 98.0425 316.521C98.0922 316.574 98.1171 316.625 98.1171 316.674C98.3658 317.439 98.2927 318.179 97.8933 318.893C97.4939 319.608 96.9453 320.142 96.2489 320.499C90.2697 323.253 84.2144 324.632 78.0846 324.632C70.0118 324.632 63.683 322.183 59.0995 317.287C54.5642 312.39 52.2966 305.835 52.2966 297.623L52.2952 297.62ZM70.0864 297.62C70.0864 300.07 70.7097 302.058 71.9547 303.589C73.1499 305.016 74.6948 305.73 76.5894 305.73C77.5857 305.73 78.5454 305.564 79.4671 305.233C80.3887 304.902 81.2724 304.379 82.1209 303.665C83.815 302.238 85.0103 300.35 85.7081 298.002L86.2319 294.788V294.559C86.2319 294.508 86.2568 294.406 86.3065 294.252V293.792C86.3065 292.67 86.1441 291.625 85.8208 290.656C85.4975 289.687 85.0103 288.795 84.3637 287.977C84.0637 287.57 83.7536 287.225 83.4288 286.945C83.1055 286.664 82.7559 286.423 82.3828 286.217C82.0083 286.014 81.6089 285.873 81.1861 285.797C80.7633 285.72 80.3024 285.681 79.805 285.681C78.5586 285.681 77.3882 285.937 76.2909 286.447C75.1952 286.956 74.1243 287.773 73.0768 288.894C72.5794 289.404 72.1419 289.966 71.7689 290.577C71.3944 291.189 71.0842 291.865 70.834 292.604C70.5853 293.344 70.3981 294.121 70.2737 294.938C70.1479 295.754 70.0864 296.646 70.0864 297.615V297.62Z" fill="#EBFEFF"/>
<path d="M160.032 0H85.7813C82.1634 0 79.2301 3.00253 79.2301 6.7059V36.0858C79.2301 39.7892 82.1634 42.7917 85.7813 42.7917H145.423L159.867 48.7623C160.927 49.2011 161.817 47.8398 161.016 47.0042L156.983 42.7917H160.032C163.65 42.7917 166.583 39.7892 166.583 36.0858V6.7059C166.583 3.00253 163.65 0 160.032 0Z" fill="#A0DCDD"/>
<path d="M153.052 13.4107H92.7638C91.8363 13.4107 91.0843 12.641 91.0843 11.6915C91.0843 10.7421 91.8363 9.97237 92.7638 9.97237H153.052C153.979 9.97237 154.731 10.7421 154.731 11.6915C154.731 12.641 153.979 13.4107 153.052 13.4107Z" fill="#E6FDFF"/>
<path d="M153.052 21.5663H92.7638C91.8363 21.5663 91.0843 20.7966 91.0843 19.8472C91.0843 18.8977 91.8363 18.128 92.7638 18.128H153.052C153.979 18.128 154.731 18.8977 154.731 19.8472C154.731 20.7966 153.979 21.5663 153.052 21.5663Z" fill="#E6FDFF"/>
<path d="M153.052 29.7318H92.7638C91.8363 29.7318 91.0843 28.9621 91.0843 28.0126C91.0843 27.0632 91.8363 26.2935 92.7638 26.2935H153.052C153.979 26.2935 154.731 27.0632 154.731 28.0126C154.731 28.9621 153.979 29.7318 153.052 29.7318Z" fill="#E6FDFF"/>
<path d="M473.515 348.734C500.332 348.734 522.071 326.481 522.071 299.031C522.071 271.581 500.332 249.328 473.515 249.328C446.698 249.328 424.958 271.581 424.958 299.031C424.958 326.481 446.698 348.734 473.515 348.734Z" fill="#A0DCDD"/>
<path d="M473.513 334.173C492.476 334.173 507.848 318.438 507.848 299.027C507.848 279.617 492.476 263.882 473.513 263.882C454.551 263.882 439.179 279.617 439.179 299.027C439.179 318.438 454.551 334.173 473.513 334.173Z" fill="#E6FDFF"/>
<path d="M473.516 323.883C486.925 323.883 497.795 312.757 497.795 299.032C497.795 285.307 486.925 274.18 473.516 274.18C460.108 274.18 449.238 285.307 449.238 299.032C449.238 312.757 460.108 323.883 473.516 323.883Z" fill="#A0DCDD"/>
<path d="M473.515 313.6C481.375 313.6 487.747 307.077 487.747 299.032C487.747 290.986 481.375 284.464 473.515 284.464C465.655 284.464 459.283 290.986 459.283 299.032C459.283 307.077 465.655 313.6 473.515 313.6Z" fill="#E6FDFF"/>
<path d="M535.664 318.177L532.45 320.665L479.73 298.549L480.776 295.956C481.048 295.282 480.662 294.61 480.066 294.72L471.152 296.365C470.515 296.483 470.139 297.39 470.497 297.947L475.569 305.824C475.909 306.352 476.659 306.161 476.934 305.477L478.856 300.71L477.996 302.855L530.715 324.97L531.278 329.051C531.309 329.273 531.43 329.448 531.604 329.521L542.051 333.937C542.497 334.126 543.015 333.59 542.936 333.021L542.215 327.79C542.173 327.488 542.307 327.157 542.546 326.972L546.663 323.786C547.11 323.438 547.113 322.685 546.667 322.496L536.22 318.08C536.046 318.007 535.84 318.043 535.665 318.179L535.664 318.177Z" fill="#A0DCDD"/>
</svg>
