<?xml version="1.0" encoding="UTF-8"?>
<svg id="Layer_2" data-name="Layer 2" xmlns="http://www.w3.org/2000/svg" viewBox="0 0 2225.1 978.31">
  <defs>
    <style>
      .cls-1 {
        fill: #19469d;
      }

      .cls-2 {
        fill: #a1dadb;
      }
    </style>
  </defs>
  <path class="cls-1" d="M343,222.05h1541.68c67.16,0,121.68,54.52,121.68,121.68v293.77c0,67.15-54.52,121.67-121.67,121.67H343c-67.15,0-121.67-54.52-121.67-121.67v-293.77c0-67.15,54.52-121.67,121.67-121.67Z"/>
  <g>
    <polygon class="cls-2" points="1547.89 493.66 1472.33 493.66 1472.33 418.08 1445.14 418.08 1445.14 493.66 1369.58 493.66 1369.58 520.81 1445.14 520.81 1445.14 596.4 1472.33 596.4 1472.33 520.81 1547.89 520.81 1547.89 493.66"/>
    <g>
      <path class="cls-2" d="M988.53,630.35c-4.91-95-53.58-183.98-130.27-238.13-47.14-33.28-103.09-52.55-162.06-55.85l-6.32-.31-10.31-.37v309.47h296.65c.27,0,.53-.03.79-.05.31.01.63.03.94.05l10.66.38v-13.77c0-.47-.03-.94-.09-1.41ZM852.86,413.73c.2.15.39.3.59.45,1.93,1.45,3.84,2.92,5.72,4.42.55.44,1.08.89,1.63,1.33,1.52,1.23,3.04,2.45,4.53,3.71.76.64,1.49,1.3,2.24,1.94,1.26,1.09,2.53,2.16,3.77,3.27.86.77,1.69,1.56,2.54,2.33,1.11,1.01,2.22,2.01,3.31,3.04.95.89,1.87,1.81,2.8,2.72.96.94,1.94,1.86,2.89,2.81.99.99,1.95,2,2.92,3,.87.9,1.75,1.78,2.61,2.69,1.05,1.11,2.07,2.24,3.09,3.36.75.82,1.52,1.63,2.27,2.47,1.07,1.2,2.12,2.42,3.17,3.64.68.78,1.37,1.55,2.03,2.34,1.1,1.3,2.17,2.62,3.24,3.94.59.73,1.2,1.44,1.79,2.17,1.09,1.36,2.14,2.74,3.21,4.12.55.71,1.12,1.42,1.66,2.14,1.09,1.44,2.15,2.91,3.22,4.38.49.67.99,1.33,1.47,2,1.11,1.55,2.18,3.12,3.26,4.69.42.61.84,1.2,1.26,1.81,1.08,1.6,2.13,3.22,3.17,4.84.39.6.79,1.19,1.17,1.79,1.06,1.67,2.09,3.35,3.11,5.04.35.57.71,1.13,1.05,1.7,1.03,1.72,2.02,3.45,3.01,5.19.32.56.65,1.11.97,1.67.98,1.74,1.92,3.49,2.86,5.25.31.58.63,1.15.94,1.72.94,1.77,1.84,3.56,2.74,5.36.29.57.59,1.14.87,1.71.87,1.77,1.71,3.55,2.55,5.34.29.61.59,1.22.87,1.84.82,1.79,1.61,3.59,2.4,5.4.27.62.56,1.24.83,1.86.77,1.79,1.5,3.61,2.24,5.42.26.65.54,1.29.8,1.94.71,1.78,1.38,3.57,2.05,5.36.26.7.54,1.39.79,2.09.64,1.76,1.25,3.52,1.86,5.29.26.75.53,1.49.78,2.23.58,1.73,1.12,3.47,1.67,5.2.25.8.52,1.6.77,2.4.52,1.69,1,3.39,1.48,5.08.25.87.51,1.73.75,2.6.46,1.66.88,3.33,1.31,5,.24.92.49,1.83.72,2.75.4,1.62.77,3.25,1.14,4.88.22.98.46,1.95.68,2.93.35,1.58.66,3.17.97,4.76.21,1.04.43,2.07.63,3.11.29,1.53.55,3.07.81,4.61.19,1.1.4,2.21.58,3.31.24,1.49.44,2.98.66,4.47.17,1.17.36,2.33.51,3.5.19,1.44.35,2.89.52,4.33.14,1.23.3,2.46.43,3.69.15,1.39.26,2.78.38,4.17.11,1.19.23,2.38.32,3.58-52.99-3.96-103.19-21.76-145.69-51.75-69.54-49.12-114.4-128.94-121.12-214.79l1.32.1v-.1c1.45.11,2.89.26,4.33.4,1.62.15,3.25.29,4.87.47,1.66.18,3.32.41,4.97.62,1.61.2,3.22.39,4.81.62,1.66.24,3.31.52,4.96.79,1.58.25,3.17.49,4.74.77,1.66.3,3.32.64,4.97.96,1.55.3,3.1.59,4.65.91,1.66.35,3.3.75,4.95,1.13,1.53.35,3.06.68,4.58,1.06,1.66.41,3.3.86,4.95,1.3,1.49.4,2.99.77,4.48,1.19,1.66.47,3.3.98,4.95,1.48,1.46.44,2.92.86,4.37,1.32,1.66.53,3.3,1.11,4.95,1.67,1.41.48,2.84.94,4.24,1.44,1.67.59,3.32,1.24,4.97,1.86,1.37.52,2.75,1.01,4.1,1.55,1.67.66,3.31,1.36,4.97,2.05,1.33.55,2.66,1.08,3.98,1.65,1.67.73,3.32,1.5,4.97,2.26,1.28.58,2.57,1.15,3.84,1.75,1.67.8,3.33,1.64,4.98,2.47,1.23.61,2.47,1.2,3.69,1.83,1.69.87,3.35,1.8,5.02,2.71,1.16.63,2.34,1.24,3.5,1.89,1.76.99,3.5,2.03,5.24,3.06,1.04.61,2.09,1.2,3.12,1.82,1.89,1.15,3.76,2.35,5.63,3.55.85.55,1.72,1.07,2.57,1.62,2.7,1.77,5.38,3.59,8.02,5.46,2.18,1.54,4.33,3.11,6.46,4.7ZM700.15,446.95c21.84,56.79,59.87,106.8,109.79,142.05,20.74,14.63,43.17,26.53,66.81,35.58h-176.6v-177.63Z"/>
      <circle class="cls-2" cx="840.93" cy="492.94" r="53.48"/>
    </g>
    <polygon class="cls-2" points="644.75 346.29 644.75 336.49 335.72 336.49 335.72 356.09 510.43 356.09 337.87 383.42 340.94 402.78 513.5 375.45 347.34 429.44 353.4 448.08 519.55 394.1 363.89 473.41 372.79 490.88 528.44 411.57 387.11 514.25 398.64 530.11 539.97 427.42 416.44 550.95 430.3 564.82 553.83 441.28 451.15 582.62 467.01 594.14 569.69 452.81 490.38 608.46 507.85 617.36 587.16 461.7 533.18 627.86 551.82 633.91 605.8 467.76 578.47 640.31 597.83 643.38 625.16 470.83 625.16 645.53 644.77 645.53 644.77 346.29 644.75 346.29"/>
    <g>
      <path class="cls-2" d="M1266.02,645.53h-32.14v-118.69h-145.01v-32.14h145.01v-126.09h-96.69c-14.57,0-27.96,3.59-40.17,10.77-12.21,7.18-21.91,16.87-29.08,29.08-7.18,12.21-10.77,25.71-10.77,40.49v196.57h-32.14v-196.57c0-15.43,2.89-29.94,8.68-43.54,5.78-13.6,13.82-25.6,24.1-35.99,10.28-10.39,22.22-18.48,35.83-24.26,13.6-5.78,28.12-8.68,43.54-8.68h128.83v309.04Z"/>
      <g>
        <path class="cls-2" d="M1334.08,645.24h-31.86v-241.41h31.86v241.41Z"/>
        <rect class="cls-2" x="1302.22" y="336.49" width="31.86" height="31.86" transform="translate(1670.57 -965.74) rotate(90)"/>
      </g>
    </g>
    <g>
      <g>
        <path class="cls-2" d="M1891.96,645.12h-31.86v-241.41h31.86v241.41Z"/>
        <rect class="cls-2" x="1860.1" y="336.37" width="31.86" height="31.86" transform="translate(2228.33 -1523.74) rotate(90)"/>
      </g>
      <path class="cls-2" d="M1615.34,645.53h-32.12v-308.75h78.01c90.13,0,163.46,69.25,163.46,154.37s-73.33,154.37-163.46,154.37h-14.12v-29.98h14.12c73.6,0,133.48-55.8,133.48-124.4s-59.88-124.4-133.48-124.4h-45.89v278.78Z"/>
    </g>
  </g>
</svg>