<?xml version="1.0" encoding="UTF-8"?>
<svg id="Layer_2" data-name="Layer 2" xmlns="http://www.w3.org/2000/svg" viewBox="0 0 1003.48 1003.48">
  <defs>
    <style>
      .cls-1 {
        letter-spacing: 0em;
      }

      .cls-2 {
        fill: #010101;
        font-family: MyriadPro-Regular, 'Myriad Pro';
        font-size: 74.67px;
      }

      .cls-3 {
        fill: #a1dadb;
      }

      .cls-4 {
        fill: #1c499c;
      }

      .cls-5 {
        letter-spacing: -.01em;
      }

      .cls-6 {
        letter-spacing: 0em;
      }

      .cls-7 {
        letter-spacing: 0em;
      }
    </style>
  </defs>
  <g>
    <rect class="cls-4" width="1003.48" height="1003.48" rx="124.7" ry="124.7"/>
    <g>
      <g>
        <path class="cls-3" d="M935.08,466.56c-6.61-127.99-72.19-247.88-175.52-320.84-63.52-44.84-138.9-70.8-218.34-75.25l-8.51-.42-13.89-.5v416.95h399.69c.36,0,.71-.04,1.07-.07.42.02.84.05,1.27.06l14.36.52v-18.55c0-.64-.04-1.27-.12-1.9ZM752.29,174.71c.27.2.53.41.79.61,2.59,1.96,5.17,3.94,7.71,5.96.74.59,1.46,1.2,2.19,1.8,2.05,1.65,4.09,3.31,6.1,5,1.02.86,2.01,1.75,3.02,2.62,1.7,1.46,3.4,2.91,5.07,4.41,1.15,1.03,2.28,2.1,3.42,3.14,1.49,1.36,2.99,2.71,4.46,4.1,1.28,1.21,2.52,2.44,3.77,3.67,1.3,1.26,2.61,2.51,3.89,3.79,1.33,1.33,2.62,2.69,3.93,4.04,1.17,1.21,2.36,2.4,3.52,3.62,1.41,1.49,2.78,3.02,4.17,4.53,1.02,1.11,2.05,2.2,3.06,3.32,1.45,1.62,2.85,3.27,4.27,4.91.91,1.05,1.84,2.09,2.74,3.15,1.48,1.75,2.92,3.53,4.37,5.31.8.98,1.62,1.94,2.41,2.93,1.46,1.83,2.89,3.69,4.32,5.55.74.96,1.51,1.91,2.24,2.88,1.47,1.95,2.9,3.92,4.34,5.9.66.9,1.33,1.79,1.98,2.7,1.49,2.09,2.94,4.21,4.39,6.32.56.82,1.14,1.62,1.69,2.44,1.45,2.15,2.86,4.34,4.27,6.52.52.81,1.06,1.6,1.58,2.41,1.43,2.24,2.81,4.52,4.19,6.79.47.77.95,1.52,1.42,2.3,1.38,2.31,2.72,4.65,4.06,6.99.43.75.88,1.5,1.31,2.25,1.32,2.34,2.59,4.7,3.85,7.07.42.78.85,1.54,1.26,2.32,1.26,2.39,2.48,4.8,3.69,7.22.39.77.79,1.53,1.18,2.31,1.18,2.38,2.31,4.79,3.44,7.19.39.83.8,1.64,1.18,2.48,1.11,2.41,2.17,4.84,3.24,7.28.37.84.75,1.67,1.11,2.51,1.04,2.42,2.03,4.86,3.01,7.3.35.87.73,1.74,1.08,2.62.95,2.39,1.85,4.81,2.76,7.22.35.94.72,1.87,1.07,2.81.87,2.37,1.68,4.75,2.51,7.13.35,1.01.71,2,1.05,3.01.78,2.33,1.51,4.67,2.25,7.01.34,1.08.7,2.15,1.03,3.24.7,2.27,1.34,4.56,2,6.85.33,1.17.69,2.33,1.01,3.5.62,2.24,1.19,4.49,1.77,6.73.32,1.23.66,2.46.96,3.7.54,2.19,1.03,4.38,1.54,6.58.3,1.32.63,2.63.91,3.95.46,2.13.88,4.27,1.31,6.41.28,1.4.58,2.79.85,4.19.39,2.07.74,4.14,1.1,6.22.26,1.49.54,2.97.78,4.46.32,2,.6,4.01.89,6.02.23,1.57.48,3.14.69,4.72.26,1.94.47,3.89.7,5.84.2,1.66.41,3.31.58,4.97.2,1.87.35,3.75.52,5.62.15,1.61.31,3.21.43,4.82-71.4-5.34-139.02-29.32-196.29-69.72-93.69-66.18-154.13-173.72-163.18-289.39l1.78.13v-.14c1.95.15,3.89.35,5.84.53,2.19.2,4.38.39,6.56.63,2.24.25,4.47.55,6.7.84,2.16.27,4.33.53,6.49.84,2.24.32,4.46.7,6.69,1.06,2.13.34,4.27.66,6.39,1.04,2.24.4,4.47.86,6.7,1.29,2.09.41,4.18.79,6.26,1.23,2.23.47,4.45,1.01,6.67,1.52,2.06.47,4.12.92,6.17,1.42,2.23.55,4.44,1.16,6.66,1.75,2.01.53,4.03,1.04,6.03,1.6,2.23.63,4.45,1.32,6.67,1.99,1.96.59,3.93,1.16,5.89,1.78,2.24.71,4.45,1.49,6.67,2.24,1.91.65,3.82,1.26,5.72,1.94,2.25.8,4.47,1.67,6.7,2.51,1.84.7,3.7,1.36,5.53,2.08,2.25.89,4.47,1.84,6.69,2.77,1.79.74,3.59,1.46,5.36,2.23,2.25.98,4.47,2.02,6.7,3.04,1.72.79,3.46,1.54,5.17,2.36,2.26,1.07,4.48,2.21,6.71,3.33,1.65.83,3.33,1.62,4.97,2.47,2.28,1.18,4.52,2.42,6.77,3.64,1.57.85,3.15,1.67,4.71,2.54,2.37,1.33,4.71,2.74,7.06,4.12,1.4.83,2.82,1.62,4.2,2.46,2.55,1.55,5.06,3.17,7.58,4.78,1.15.74,2.32,1.44,3.47,2.19,3.64,2.39,7.25,4.84,10.81,7.35,2.94,2.07,5.84,4.19,8.71,6.34ZM546.54,219.46c29.43,76.52,80.67,143.89,147.92,191.39,27.94,19.71,58.17,35.74,90.01,47.93h-237.93v-239.33Z"/>
        <circle class="cls-3" cx="736.21" cy="281.42" r="72.06"/>
      </g>
      <polygon class="cls-3" points="483.18 518.99 68.28 518.99 68.28 545.31 302.83 545.31 71.16 582 75.28 607.99 306.95 571.3 83.87 643.79 92.01 668.82 315.08 596.33 106.09 702.82 118.04 726.27 327.02 619.79 137.27 757.65 152.74 778.95 342.5 641.08 176.64 806.93 195.25 825.54 361.11 659.69 223.24 849.45 244.54 864.92 382.4 675.17 275.92 884.15 299.37 896.1 405.86 687.1 333.38 910.18 358.41 918.32 430.89 695.24 394.19 926.91 420.19 931.03 456.88 699.36 456.88 933.91 483.2 933.91 483.18 518.99"/>
    </g>
  </g>
  <text class="cls-2" transform="translate(-2.33 -66.36)"><tspan class="cls-5" x="0" y="0">L</tspan><tspan class="cls-1" x="34.2" y="0">ogoma</tspan><tspan class="cls-7" x="256.19" y="0">r</tspan><tspan x="280.91" y="0">k / emblem - full </tspan><tspan class="cls-6" x="801.28" y="0">c</tspan><tspan x="834.28" y="0">olor</tspan></text>
</svg>