<svg width="398" height="45" viewBox="0 0 398 45" fill="none" xmlns="http://www.w3.org/2000/svg">
<mask id="mask0_1049_272" style="mask-type:alpha" maskUnits="userSpaceOnUse" x="0" y="0" width="398" height="45">
<rect x="397.154" y="44.2612" width="397.154" height="44.2612" transform="rotate(-180 397.154 44.2612)" fill="#D9D9D9"/>
</mask>
<g mask="url(#mask0_1049_272)">
<g style="mix-blend-mode:overlay">
<rect x="262.891" y="21.2114" width="5.7041" height="42.2569" rx="2.85205" transform="rotate(-180 262.891 21.2114)" fill="#A0DCDD"/>
</g>
<g style="mix-blend-mode:overlay">
<rect x="247.816" y="34.0171" width="5.7041" height="66.5866" rx="2.85205" transform="rotate(-180 247.816 34.0171)" fill="#A0DCDD"/>
</g>
<g style="mix-blend-mode:overlay">
<rect x="232.74" y="44.2612" width="6.84492" height="88.3553" rx="3.42246" transform="rotate(-180 232.74 44.2612)" fill="#A0DCDD"/>
</g>
<g style="mix-blend-mode:overlay">
<rect x="272.262" y="-32.5699" width="5.70411" height="65.3061" rx="2.85205" fill="#A0DCDD"/>
</g>
<g style="mix-blend-mode:overlay">
<rect x="195.746" y="-21.0454" width="5.7041" height="42.2569" rx="2.85205" fill="#A0DCDD"/>
</g>
<g style="mix-blend-mode:overlay">
<rect x="210.82" y="-32.5699" width="5.70411" height="66.5866" rx="2.85205" fill="#A0DCDD"/>
</g>
<g style="mix-blend-mode:overlay">
<rect x="317.488" y="-21.0454" width="5.7041" height="42.2569" rx="2.85205" fill="#A0DCDD"/>
</g>
<g style="mix-blend-mode:overlay">
<rect x="332.563" y="-32.5699" width="5.70411" height="66.5866" rx="2.85205" fill="#A0DCDD"/>
</g>
<g style="mix-blend-mode:overlay">
<rect x="347.638" y="-44.0952" width="6.84492" height="88.3553" rx="3.42246" fill="#A0DCDD"/>
</g>
<g style="mix-blend-mode:overlay">
<rect x="308.117" y="32.7368" width="5.70411" height="65.3061" rx="2.85205" transform="rotate(-180 308.117 32.7368)" fill="#A0DCDD"/>
</g>
<g style="mix-blend-mode:overlay">
<rect x="293.042" y="44.2612" width="5.70411" height="88.3553" rx="2.85205" transform="rotate(-180 293.042 44.2612)" fill="#A0DCDD"/>
</g>
<g style="mix-blend-mode:overlay">
<rect x="384.634" y="21.2114" width="5.70411" height="42.2569" rx="2.85205" transform="rotate(-180 384.634 21.2114)" fill="#A0DCDD"/>
</g>
<g style="mix-blend-mode:overlay">
<rect x="369.559" y="34.0171" width="5.70411" height="66.5866" rx="2.85205" transform="rotate(-180 369.559 34.0171)" fill="#A0DCDD"/>
</g>
<g style="mix-blend-mode:overlay">
<rect x="79.7065" y="21.2114" width="5.7041" height="42.2569" rx="2.85205" transform="rotate(-180 79.7065 21.2114)" fill="#A0DCDD"/>
</g>
<g style="mix-blend-mode:overlay">
<rect x="64.6309" y="34.0171" width="5.7041" height="66.5866" rx="2.85205" transform="rotate(-180 64.6309 34.0171)" fill="#A0DCDD"/>
</g>
<g style="mix-blend-mode:overlay">
<rect x="49.5554" y="44.2612" width="6.84492" height="88.3553" rx="3.42246" transform="rotate(-180 49.5554 44.2612)" fill="#A0DCDD"/>
</g>
<g style="mix-blend-mode:overlay">
<rect x="89.0774" y="-32.5699" width="5.70411" height="65.3061" rx="2.85205" fill="#A0DCDD"/>
</g>
<g style="mix-blend-mode:overlay">
<rect x="12.5608" y="-21.0454" width="5.7041" height="42.2569" rx="2.85205" fill="#A0DCDD"/>
</g>
<g style="mix-blend-mode:overlay">
<rect x="27.6355" y="-32.5699" width="5.70411" height="66.5866" rx="2.85205" fill="#A0DCDD"/>
</g>
<g style="mix-blend-mode:overlay">
<rect x="134.304" y="-21.0454" width="5.7041" height="42.2569" rx="2.85205" fill="#A0DCDD"/>
</g>
<g style="mix-blend-mode:overlay">
<rect x="149.379" y="-32.5699" width="5.70411" height="66.5866" rx="2.85205" fill="#A0DCDD"/>
</g>
<g style="mix-blend-mode:overlay">
<rect x="164.454" y="-44.0952" width="6.84492" height="88.3553" rx="3.42246" fill="#A0DCDD"/>
</g>
<g style="mix-blend-mode:overlay">
<rect x="124.932" y="32.7368" width="5.70411" height="65.3061" rx="2.85205" transform="rotate(-180 124.932 32.7368)" fill="#A0DCDD"/>
</g>
<g style="mix-blend-mode:overlay">
<rect x="109.857" y="44.2612" width="5.70411" height="88.3553" rx="2.85205" transform="rotate(-180 109.857 44.2612)" fill="#A0DCDD"/>
</g>
<g style="mix-blend-mode:overlay">
<rect x="186.374" y="34.0171" width="5.70411" height="66.5866" rx="2.85205" transform="rotate(-180 186.374 34.0171)" fill="#A0DCDD"/>
</g>
</g>
</svg>
